<?xml version="1.0" standalone="no"?>
<!DOCTYPE svg PUBLIC "-//W3C//DTD SVG 20010904//EN"
 "http://www.w3.org/TR/2001/REC-SVG-20010904/DTD/svg10.dtd">
<svg version="1.0" xmlns="http://www.w3.org/2000/svg"
 width="900.000000pt" height="660.000000pt" viewBox="0 0 900.000000 660.000000"
 preserveAspectRatio="xMidYMid meet">
<metadata>
Created by potrace 1.10, written by Peter Selinger 2001-2011
</metadata>
<g transform="translate(0.000000,660.000000) scale(0.100000,-0.100000)"
fill="#000000" stroke="none">
<path d="M1705 6445 c-62 -13 -108 -32 -160 -65 -16 -10 -40 -25 -52 -32 -13
-7 -66 -40 -119 -73 -52 -33 -108 -67 -122 -77 -47 -28 -228 -118 -240 -118
-22 0 -40 -45 -51 -130 -7 -47 -17 -105 -23 -130 -6 -25 -14 -61 -18 -80 -38
-166 -59 -254 -76 -316 -30 -107 -14 -155 65 -202 18 -11 52 -38 75 -59 66
-62 306 -262 433 -361 84 -66 133 -110 133 -119 0 -4 -49 -32 -108 -61 -115
-56 -114 -56 -210 -120 -35 -23 -65 -42 -67 -42 -14 0 -158 -108 -226 -171
-46 -42 -104 -93 -128 -114 -88 -79 -259 -295 -346 -437 -49 -81 -134 -246
-170 -334 -20 -49 -43 -104 -51 -122 -8 -18 -14 -39 -14 -47 0 -8 -6 -29 -14
-47 -7 -18 -21 -59 -30 -90 -76 -271 -78 -293 -73 -663 2 -201 8 -342 16 -380
31 -147 78 -308 131 -445 12 -30 25 -66 29 -80 43 -136 253 -463 420 -654 39
-44 222 -227 256 -257 42 -36 182 -139 235 -174 56 -37 72 -45 195 -107 55
-27 108 -54 117 -59 16 -8 66 -27 128 -49 14 -5 50 -18 80 -30 30 -12 69 -25
85 -30 17 -5 55 -18 85 -29 136 -52 175 -56 625 -56 494 0 531 5 800 102 83
31 328 144 400 186 41 24 187 120 198 131 7 6 30 24 52 41 70 52 88 68 196
174 58 57 113 107 121 112 27 15 61 -5 128 -79 93 -100 304 -261 455 -349 51
-29 344 -173 353 -173 6 0 23 -6 39 -14 26 -14 63 -28 143 -55 69 -24 177 -49
280 -65 90 -15 172 -17 560 -14 446 4 476 6 620 40 25 6 61 14 80 18 120 27
549 220 629 283 7 6 21 16 31 22 38 22 163 109 232 162 116 89 303 269 405
389 67 80 206 261 216 284 4 8 16 29 27 45 11 17 24 39 30 50 6 11 20 36 31
55 44 72 121 232 164 340 9 25 23 59 30 75 32 76 69 223 89 350 8 55 20 132
27 170 20 128 23 495 5 671 -18 172 -39 299 -62 380 -8 28 -14 60 -14 72 0 12
-6 36 -14 54 -8 18 -22 53 -31 78 -9 25 -23 58 -31 73 -8 16 -14 34 -14 39 0
13 -152 319 -181 363 -10 17 -22 37 -26 45 -26 56 -254 340 -372 463 -109 113
-380 342 -441 371 -17 8 -38 21 -99 60 -86 55 -277 149 -361 176 -14 5 -50 18
-80 30 -65 25 -142 51 -225 75 -33 10 -77 24 -98 31 -20 8 -51 14 -67 14 -16
0 -41 5 -57 11 -71 29 -587 48 -773 30 -191 -19 -316 -43 -435 -83 -16 -5 -43
-13 -60 -18 -16 -5 -55 -18 -85 -30 -30 -12 -69 -26 -87 -31 -18 -5 -35 -14
-38 -19 -4 -6 -13 -10 -21 -10 -35 0 -303 -143 -450 -240 -67 -45 -135 -92
-146 -103 -7 -7 -33 -28 -58 -47 -157 -119 -360 -325 -437 -441 -15 -22 -34
-39 -44 -39 -11 0 -56 25 -100 56 -44 30 -88 58 -97 61 -10 4 -53 30 -98 59
-69 45 -162 95 -253 138 -49 23 -43 36 53 111 57 44 120 96 126 104 3 4 34 31
70 61 35 30 101 87 145 125 44 39 109 90 144 115 89 62 138 111 147 145 7 27
-3 81 -41 230 -18 68 -36 143 -45 185 -7 34 -13 56 -44 192 -9 36 -16 77 -16
91 0 33 -18 47 -140 110 -133 69 -201 106 -220 122 -8 6 -22 15 -30 19 -8 3
-28 15 -45 26 -16 11 -39 24 -50 30 -11 6 -33 19 -50 30 -16 11 -39 24 -50 30
-11 6 -33 19 -50 30 -71 47 -39 45 -860 46 -597 2 -794 -1 -840 -11z m473
-245 c-2 -62 -8 -94 -18 -104 -23 -22 -335 -26 -335 -4 0 9 39 56 86 107 l86
91 93 0 92 0 -4 -90z m491 64 c6 -15 15 -62 18 -106 l6 -78 -184 2 -184 3 4
90 c2 50 8 96 13 103 8 9 53 12 163 12 l152 0 12 -26z m374 1 c20 -14 37 -29
37 -33 0 -4 27 -36 60 -71 90 -95 91 -94 -107 -86 -184 8 -193 11 -193 69 0
17 -4 47 -9 66 -4 20 -4 46 0 58 8 20 15 22 91 22 73 0 88 -3 121 -25z m-1313
-7 c0 -7 -17 -31 -38 -53 -21 -22 -51 -58 -66 -81 l-27 -41 -111 -11 c-61 -7
-113 -10 -116 -8 -6 7 18 46 28 46 5 0 37 19 72 43 94 62 102 67 118 73 8 3
24 10 35 16 48 26 105 35 105 16z m1617 -15 c51 -22 144 -64 223 -101 36 -16
73 -32 83 -36 9 -3 17 -13 17 -22 0 -14 -14 -16 -119 -13 l-120 4 -84 80 c-46
44 -85 86 -86 93 -2 17 41 15 86 -5z m-5 -329 c5 -3 8 -115 8 -249 0 -212 -2
-244 -16 -249 -22 -9 -377 -7 -390 2 -11 7 -45 240 -44 305 0 21 -5 70 -12
109 -17 104 -22 102 237 93 115 -4 213 -9 217 -11z m558 -9 c8 -8 17 -41 20
-72 4 -32 12 -85 18 -118 36 -194 43 -243 40 -270 l-3 -30 -218 -3 c-139 -1
-225 1 -237 8 -19 10 -20 22 -20 243 0 128 4 237 8 244 17 26 365 24 392 -2z
m-2390 -229 c4 -192 2 -242 -8 -253 -11 -11 -58 -12 -240 -7 -125 4 -230 10
-235 14 -7 6 -2 41 24 163 7 28 15 75 19 102 7 43 21 125 36 203 l4 22 198 -2
197 -3 5 -239z m613 231 c6 -17 -9 -225 -22 -302 -6 -33 -11 -83 -11 -112 0
-82 -3 -83 -203 -83 -95 0 -182 3 -194 6 l-23 6 0 242 c0 134 3 246 7 249 3 4
104 7 224 7 168 0 218 -3 222 -13z m590 6 c17 -27 57 -467 45 -486 -5 -9 -79
-13 -251 -15 -207 -3 -246 -1 -256 12 -10 12 -10 41 3 143 8 70 17 170 20 220
9 141 -6 133 233 133 111 0 204 -3 206 -7z m1115 -669 c2 -13 -11 -32 -35 -54
-21 -18 -63 -56 -93 -84 -62 -57 -81 -73 -195 -165 -44 -36 -87 -72 -96 -80
-9 -9 -29 -27 -45 -41 -16 -13 -78 -67 -139 -120 -60 -52 -131 -111 -157 -129
-27 -19 -48 -38 -48 -43 0 -4 -7 -8 -15 -8 -38 0 -12 49 125 239 25 34 70 97
100 139 89 123 164 234 179 267 5 11 20 32 33 47 22 27 28 28 193 41 94 8 175
13 180 12 6 -1 11 -10 13 -21z m-2289 -3 c22 -6 43 -31 71 -86 16 -33 62 -99
190 -276 139 -191 240 -339 240 -350 0 -22 -36 -4 -108 54 -42 34 -79 65 -82
68 -3 3 -30 25 -60 48 -30 24 -79 65 -110 91 -30 26 -138 119 -240 206 -101
87 -191 165 -200 174 -8 8 -28 24 -44 36 -52 37 -28 44 152 43 92 -1 178 -4
191 -8z m562 -51 c9 -30 22 -75 28 -100 6 -25 18 -67 27 -95 8 -27 19 -66 24
-85 4 -19 13 -48 18 -65 10 -29 30 -99 57 -200 7 -27 21 -75 30 -106 19 -62
14 -89 -12 -67 -8 7 -40 51 -71 98 -31 47 -81 119 -112 160 -30 41 -86 120
-123 175 -37 55 -104 151 -148 214 -63 88 -78 115 -68 122 8 5 86 8 174 6
l160 -2 16 -55z m643 10 c-1 -43 -6 -67 -40 -190 -9 -30 -22 -77 -29 -105 -16
-61 -43 -156 -60 -210 -12 -41 -33 -111 -61 -212 -20 -71 -39 -108 -55 -108
-14 0 -48 80 -48 115 -1 14 -7 45 -15 70 -14 45 -29 94 -60 205 -10 33 -23 80
-31 105 -7 25 -20 72 -28 105 -9 33 -22 87 -31 120 -25 100 -29 137 -14 146 7
5 117 8 243 6 l230 -2 -1 -45z m500 44 c23 -9 20 -21 -14 -64 -16 -21 -30 -41
-30 -44 0 -4 -5 -12 -10 -19 -27 -32 -110 -147 -110 -152 0 -3 -27 -42 -60
-85 -33 -43 -60 -82 -60 -85 0 -4 -13 -24 -29 -44 -15 -20 -30 -40 -32 -46 -2
-5 -33 -54 -69 -107 -41 -64 -70 -98 -82 -98 -10 0 -18 7 -18 17 0 33 22 138
36 171 8 18 14 41 14 52 0 11 6 34 14 52 8 18 22 60 31 93 10 33 22 71 28 85
5 14 14 43 18 65 4 22 12 58 18 80 6 22 13 52 16 68 3 15 14 36 25 47 18 18
34 20 159 20 77 0 146 -3 155 -6z m3306 -20 c167 -22 255 -41 425 -89 78 -23
122 -39 238 -89 17 -8 39 -17 47 -20 8 -3 22 -10 30 -14 8 -5 24 -13 35 -19
138 -68 287 -160 344 -213 18 -17 66 -57 105 -88 69 -55 301 -281 342 -332 10
-14 46 -58 79 -99 60 -73 125 -163 138 -191 4 -8 17 -31 28 -50 12 -19 39 -69
61 -110 22 -41 48 -89 58 -107 74 -125 147 -376 194 -663 9 -52 23 -161 32
-242 15 -136 15 -157 0 -295 -32 -283 -76 -526 -117 -648 -6 -16 -15 -43 -19
-60 -22 -76 -115 -277 -187 -405 -37 -64 -128 -201 -150 -225 -10 -11 -42 -51
-72 -89 -86 -110 -90 -115 -221 -247 -143 -144 -349 -309 -455 -365 -16 -8
-57 -31 -90 -49 -303 -169 -501 -226 -930 -270 -200 -20 -316 -20 -525 0 -299
29 -513 69 -637 121 -65 27 -108 46 -127 56 -10 5 -74 38 -142 73 -113 58
-236 133 -287 174 -11 9 -44 36 -72 61 -29 25 -94 81 -145 124 -50 44 -108
100 -128 125 -20 25 -50 60 -65 76 -16 17 -57 66 -90 110 -33 44 -63 82 -67
85 -10 9 -80 110 -80 116 0 3 -13 23 -28 43 -16 20 -32 43 -35 51 -4 8 -16 29
-26 46 -81 132 -156 302 -196 439 -10 33 -23 76 -30 95 -48 133 -96 487 -95
705 0 206 54 603 97 720 30 79 55 125 68 125 12 0 125 -140 125 -154 0 -3 12
-24 28 -48 77 -122 92 -159 92 -232 -1 -33 -7 -90 -15 -126 -22 -100 -20 -413
4 -580 22 -157 33 -206 85 -393 8 -28 17 -61 20 -72 22 -89 97 -242 200 -407
153 -244 445 -529 688 -671 96 -57 321 -167 339 -167 8 0 19 -4 25 -9 15 -16
93 -42 234 -81 221 -60 791 -66 1010 -9 171 43 363 117 470 179 155 89 262
158 325 208 6 4 39 30 75 57 137 103 329 318 435 485 34 53 204 384 215 420 5
14 18 50 30 80 66 170 90 351 90 673 0 184 -4 271 -15 322 -8 38 -15 83 -15
100 0 16 -6 50 -14 75 -8 25 -23 74 -35 110 -11 36 -29 90 -41 120 -12 30 -25
66 -30 80 -4 14 -30 68 -58 120 -28 52 -61 115 -73 140 -13 25 -55 88 -95 140
-69 92 -89 117 -137 170 -13 14 -40 46 -61 72 -21 26 -68 72 -104 101 -37 30
-76 63 -87 73 -105 99 -385 280 -473 307 -9 3 -42 15 -72 27 -114 44 -318 101
-465 130 -75 15 -197 28 -339 36 -193 12 -489 -31 -634 -92 -18 -8 -40 -14
-48 -14 -9 0 -32 -7 -52 -16 -21 -9 -52 -22 -70 -30 -18 -8 -37 -14 -43 -14
-16 0 -194 -91 -269 -137 -161 -100 -256 -171 -374 -283 -81 -77 -240 -260
-261 -301 -24 -46 -52 -37 -110 33 -47 58 -108 128 -147 169 -39 41 -34 53 58
166 42 52 227 240 284 289 103 88 319 238 400 278 8 4 42 22 75 41 73 41 128
67 253 121 20 9 50 23 65 30 16 8 35 14 44 14 8 0 27 6 41 14 15 8 52 21 82
30 30 9 77 23 103 31 26 8 60 15 75 15 15 1 52 7 82 15 83 20 627 20 780 -1z
m-5 -539 c143 -27 294 -66 360 -92 112 -45 360 -175 439 -232 79 -56 93 -68
216 -191 174 -174 262 -277 310 -366 12 -21 30 -52 40 -69 52 -83 150 -278
150 -299 0 -8 6 -30 14 -48 26 -63 68 -290 87 -479 7 -71 9 -171 5 -260 -10
-232 -29 -341 -96 -564 -20 -66 -118 -273 -161 -340 -10 -16 -22 -37 -26 -45
-8 -18 -94 -143 -102 -150 -3 -3 -32 -38 -64 -78 -55 -69 -177 -196 -242 -253
-48 -41 -227 -172 -265 -194 -84 -47 -119 -65 -190 -100 -41 -21 -83 -41 -93
-46 -43 -23 -193 -67 -267 -79 -25 -4 -72 -14 -105 -21 -41 -8 -154 -12 -360
-13 -270 0 -311 3 -405 22 -170 36 -184 40 -312 88 -24 9 -50 20 -58 24 -8 5
-51 27 -95 50 -179 91 -228 125 -404 274 -156 131 -226 212 -218 248 3 13 15
48 27 78 12 30 25 69 30 85 5 17 18 55 30 85 36 94 57 162 73 240 62 296 64
734 5 970 -6 25 -14 65 -18 90 -14 86 -40 173 -76 258 -8 17 -20 47 -28 65 -8
17 -21 48 -29 67 -18 40 -143 295 -169 343 -23 44 -22 60 7 91 13 14 52 63 86
109 80 105 208 233 329 328 116 90 210 157 250 176 8 4 47 25 85 48 119 70
255 119 480 176 89 22 175 27 425 24 181 -2 268 -7 335 -20z m-3129 -156 c72
-31 222 -106 274 -136 171 -100 433 -345 591 -552 149 -197 145 -190 247 -396
101 -202 118 -241 130 -290 20 -82 34 -142 49 -205 60 -269 56 -752 -8 -986
-12 -43 -25 -97 -30 -119 -4 -22 -12 -53 -18 -68 -6 -16 -11 -39 -11 -51 0
-34 -39 -116 -55 -116 -13 0 -47 41 -71 85 -31 58 -83 164 -94 195 -22 56 -24
203 -5 295 14 65 16 119 13 290 -3 116 -10 244 -17 285 -19 112 -57 263 -88
345 -8 22 -22 58 -30 80 -30 81 -90 205 -132 276 -12 19 -24 41 -28 49 -16 36
-186 251 -245 311 -86 87 -308 253 -423 315 -91 49 -187 94 -275 128 -25 10
-60 24 -78 32 -18 8 -39 14 -47 14 -7 0 -16 4 -19 9 -12 19 8 42 72 85 37 24
94 67 127 95 69 58 95 63 171 30z m-1699 -1 c15 -7 62 -37 103 -68 41 -30 94
-68 118 -83 50 -32 52 -58 7 -68 -17 -4 -55 -17 -85 -29 -30 -12 -68 -25 -83
-30 -16 -5 -80 -35 -143 -66 -131 -64 -260 -157 -417 -298 -202 -183 -393
-465 -492 -726 -35 -93 -44 -118 -73 -215 -54 -180 -55 -191 -60 -440 -3 -198
-1 -251 12 -301 9 -34 16 -75 16 -90 0 -26 6 -49 40 -144 6 -19 15 -48 20 -65
33 -119 114 -308 179 -416 11 -19 25 -43 30 -54 5 -11 26 -40 47 -65 22 -25
61 -74 89 -110 27 -36 69 -87 93 -115 49 -56 312 -285 326 -285 5 0 17 -6 25
-14 25 -22 236 -132 346 -180 77 -34 152 -58 240 -75 148 -30 205 -34 490 -34
251 0 308 3 350 16 28 9 61 17 75 17 13 0 42 6 65 14 22 8 73 24 113 36 40 13
75 27 78 31 3 5 12 9 20 9 18 0 195 85 249 119 60 38 78 49 95 57 30 15 197
161 281 246 53 55 94 88 106 88 23 0 187 -167 206 -209 12 -25 4 -34 -182
-204 -139 -127 -331 -252 -551 -360 -188 -91 -309 -128 -555 -169 -164 -27
-661 -13 -860 24 -33 6 -80 15 -105 19 -64 11 -174 45 -245 75 -40 17 -175 82
-200 97 -97 56 -129 76 -190 116 -38 25 -72 48 -75 51 -3 3 -21 16 -40 30
-111 77 -265 223 -366 346 -83 101 -206 271 -227 314 -4 8 -23 42 -42 75 -43
78 -105 203 -105 215 0 5 -7 26 -16 47 -48 112 -60 146 -83 238 -88 341 -90
853 -5 1150 43 151 83 252 160 410 46 92 50 100 97 173 15 24 27 45 27 48 0 6
131 180 176 234 61 73 232 245 297 299 156 127 342 241 482 294 22 8 51 19 65
25 33 14 44 14 77 0z m487 -388 c32 -28 82 -73 111 -101 143 -136 165 -147
237 -109 45 23 125 87 193 154 94 91 121 108 167 103 24 -2 59 -10 78 -17 19
-7 53 -19 75 -27 38 -14 68 -26 138 -57 47 -21 239 -116 262 -129 67 -40 137
-92 188 -139 53 -50 57 -56 57 -98 0 -25 -12 -76 -26 -115 -14 -38 -29 -86
-33 -105 -5 -19 -13 -46 -18 -60 -12 -28 -34 -106 -56 -195 -30 -117 -42 -277
-42 -550 0 -349 6 -386 130 -810 31 -108 71 -207 132 -330 57 -113 68 -134 82
-148 6 -6 11 -20 11 -31 0 -25 -225 -254 -300 -304 -30 -20 -80 -55 -110 -78
-30 -22 -62 -44 -70 -47 -8 -4 -31 -17 -50 -28 -131 -78 -356 -161 -515 -189
-106 -19 -327 -24 -415 -10 -41 7 -113 16 -160 20 -149 15 -380 66 -451 100
-30 15 -114 62 -144 80 -16 10 -48 28 -70 40 -51 28 -134 83 -160 107 -12 10
-50 43 -85 73 -134 113 -263 254 -316 345 -60 103 -175 332 -193 385 -69 201
-86 321 -86 630 0 288 4 319 66 520 25 79 91 224 143 315 56 98 77 133 93 150
10 11 44 53 77 93 58 73 217 238 268 279 53 43 174 122 233 151 148 76 275
131 350 152 17 4 41 12 55 18 56 24 92 15 154 -38z m2025 -1366 c17 -37 49
-214 56 -309 6 -84 -5 -126 -25 -95 -5 8 -10 29 -10 46 0 17 -6 53 -14 80 -8
27 -17 80 -21 119 -4 38 -11 79 -15 91 -10 24 -2 94 10 94 4 0 12 -12 19 -26z"/>
</g>
</svg>
