<?xml version="1.0" standalone="no"?>
<!DOCTYPE svg PUBLIC "-//W3C//DTD SVG 20010904//EN"
 "http://www.w3.org/TR/2001/REC-SVG-20010904/DTD/svg10.dtd">
<svg version="1.0" xmlns="http://www.w3.org/2000/svg"
 width="113.000000pt" height="300.000000pt" viewBox="0 0 113.000000 300.000000"
 preserveAspectRatio="xMidYMid meet">
<metadata>
Created by potrace 1.10, written by Peter Selinger 2001-2011
</metadata>
<g transform="translate(0.000000,300.000000) scale(0.100000,-0.100000)"
fill="#000000" stroke="none">
<path d="M1003 2978 c-4 -7 -20 -46 -34 -88 l-26 -75 -54 -5 c-71 -7 -117 -35
-146 -89 -27 -51 -30 -109 -7 -152 8 -17 14 -33 11 -35 -2 -2 -30 5 -62 16
-32 11 -62 20 -67 20 -4 0 -8 -60 -8 -133 l0 -132 -117 3 c-65 2 -120 6 -122
8 -2 2 -17 104 -33 226 -17 123 -34 227 -39 233 -6 5 -13 5 -20 -2 -9 -9 -4
-66 20 -230 17 -120 31 -223 31 -229 0 -8 -34 -10 -110 -7 -96 3 -110 2 -110
-12 0 -9 12 -62 27 -118 25 -94 27 -117 27 -287 0 -199 -3 -218 -95 -530 -16
-55 -22 -103 -23 -180 -1 -100 1 -109 32 -172 40 -81 131 -169 226 -217 l64
-33 7 -127 c3 -69 11 -184 16 -256 14 -206 21 -185 -69 -224 -42 -19 -105 -47
-140 -62 -38 -17 -62 -34 -62 -44 0 -14 36 -15 337 -13 229 2 337 6 340 14 2
6 -61 39 -139 73 -79 35 -146 66 -149 70 -3 3 2 94 12 201 9 107 20 234 24
282 l7 86 66 34 c88 44 194 144 229 216 26 53 28 65 27 177 -1 114 -3 127 -48
270 -56 179 -76 286 -76 409 l0 92 176 222 c96 122 174 227 172 233 -2 6 -35
21 -72 33 l-68 21 38 25 c45 29 84 98 84 147 0 48 -22 94 -64 135 l-36 35 25
67 c14 36 25 75 25 86 0 24 -16 34 -27 18z m-33 -213 c63 -33 88 -124 52 -195
-18 -37 -82 -80 -119 -80 -29 0 -29 6 3 96 15 41 24 77 21 81 -16 15 -35 -12
-57 -81 -13 -42 -29 -76 -36 -76 -6 0 -26 16 -43 35 -26 30 -31 44 -31 88 0
58 21 98 66 128 35 23 104 25 144 4z m-120 -302 c102 -31 189 -59 193 -63 5
-4 -2 -20 -15 -34 l-23 -28 -175 55 -175 54 -3 37 c-2 20 0 36 5 36 4 0 91
-25 193 -57z m117 -143 c7 0 13 -3 13 -7 0 -7 -210 -277 -227 -293 -13 -12 17
134 53 258 6 22 5 22 -75 22 l-81 0 0 59 0 59 152 -49 c83 -27 158 -49 165
-49z m-627 -61 c0 -18 50 -363 55 -379 4 -13 -5 -16 -53 -15 -91 0 -92 -1 -92
-103 0 -125 -22 -239 -72 -367 -39 -102 -42 -117 -43 -210 0 -90 3 -105 27
-152 61 -115 141 -164 278 -171 69 -3 95 0 141 17 129 49 209 167 209 311 0
52 -27 164 -64 265 -33 92 -56 227 -56 331 0 46 -2 84 -4 84 -3 0 -26 -11 -52
-25 -47 -25 -101 -31 -154 -16 -24 7 -26 13 -52 191 -15 102 -27 200 -28 218
l0 32 196 0 c183 0 196 -1 189 -17 -3 -10 -18 -65 -32 -123 -23 -97 -25 -117
-20 -265 6 -169 19 -244 77 -420 35 -106 60 -221 60 -275 0 -21 -9 -69 -21
-106 -19 -60 -30 -77 -93 -139 -48 -48 -95 -82 -148 -109 -69 -35 -78 -42 -78
-67 0 -15 -9 -152 -20 -304 -11 -152 -18 -280 -15 -284 2 -5 51 -26 107 -47
90 -34 99 -39 68 -41 -72 -5 -428 -8 -424 -4 8 9 189 81 203 81 11 0 12 21 7
113 -9 152 -37 521 -39 522 -1 0 -33 15 -71 34 -130 65 -220 171 -246 291 -16
72 -3 154 50 331 51 167 80 333 80 453 0 84 -26 263 -49 344 l-10 32 95 0 c60
0 94 -4 94 -11z m64 -456 c3 -16 20 -138 38 -272 22 -169 36 -245 46 -248 7
-3 14 -4 16 -2 5 6 -19 200 -43 361 -12 75 -21 140 -21 145 0 5 25 6 55 3 35
-4 70 -1 93 7 20 7 40 13 45 13 4 0 7 -33 7 -72 1 -104 22 -206 70 -338 36
-99 42 -127 42 -200 2 -107 -24 -172 -89 -230 -147 -129 -380 -95 -465 69 -25
47 -28 64 -28 145 0 73 6 105 26 161 65 177 76 221 87 353 l11 132 52 0 c49 0
53 -2 58 -27z"/>
<path d="M694 2344 c3 -9 6 -18 6 -20 0 -2 9 -4 20 -4 13 0 20 7 20 20 0 15
-7 20 -26 20 -20 0 -25 -4 -20 -16z"/>
<path d="M860 2291 c0 -26 17 -36 35 -21 18 15 8 40 -16 40 -12 0 -19 -7 -19
-19z"/>
<path d="M801 2196 c-14 -17 -7 -36 14 -36 22 0 29 20 13 36 -13 13 -16 13
-27 0z"/>
</g>
</svg>
