<?xml version="1.0" standalone="no"?>
<!DOCTYPE svg PUBLIC "-//W3C//DTD SVG 20010904//EN"
 "http://www.w3.org/TR/2001/REC-SVG-20010904/DTD/svg10.dtd">
<svg version="1.0" xmlns="http://www.w3.org/2000/svg"
 width="300.000000pt" height="245.000000pt" viewBox="0 0 300.000000 245.000000"
 preserveAspectRatio="xMidYMid meet">
<metadata>
Created by potrace 1.10, written by Peter Selinger 2001-2011
</metadata>
<g transform="translate(0.000000,245.000000) scale(0.100000,-0.100000)"
fill="#000000" stroke="none">
<path d="M2852 2218 c-119 -360 -172 -642 -179 -959 -5 -211 -5 -217 16 -238
12 -12 34 -21 50 -21 28 0 29 -2 25 -33 -6 -46 -23 -406 -31 -647 -4 -153 -3
-212 6 -228 17 -31 69 -62 106 -62 35 0 89 30 104 59 8 14 10 371 9 1178 -3
1065 -4 1158 -19 1161 -14 2 -31 -39 -87 -210z m53 -2104 c-9 -14 -30 -26 -50
-30 -30 -5 -41 -2 -61 17 -21 20 -24 31 -24 98 0 69 31 604 45 779 l6 72 -52
0 -51 0 5 203 c7 299 62 610 159 902 l33 100 3 -1059 c2 -927 0 -1062 -13
-1082z"/>
<path d="M227 2382 c-15 -16 -17 -50 -17 -265 0 -213 -2 -247 -15 -247 -13 0
-15 30 -15 208 0 190 -2 210 -18 225 -24 22 -64 22 -91 0 -20 -17 -20 -28 -23
-331 l-3 -313 72 -69 c48 -46 70 -75 67 -87 -3 -15 -21 -373 -39 -773 -3 -63
-10 -215 -16 -338 -10 -203 -10 -227 6 -268 12 -33 27 -50 59 -69 77 -45 159
-29 212 40 l27 36 -6 187 c-7 231 -44 1019 -52 1125 l-6 78 70 68 c50 50 71
78 76 102 3 19 2 159 -4 312 -10 304 -12 317 -71 317 -55 0 -59 -17 -62 -240
-2 -152 -6 -204 -15 -208 -10 -3 -13 50 -13 240 0 278 -2 288 -69 288 -24 0
-44 -7 -54 -18z m75 -282 c3 -285 2 -280 63 -280 54 0 55 6 55 241 0 210 5
248 30 223 14 -14 25 -576 12 -601 -6 -11 -41 -45 -78 -74 l-66 -54 6 -130 c4
-71 18 -332 31 -580 14 -247 26 -507 27 -577 3 -126 3 -128 -23 -154 -18 -18
-41 -28 -71 -31 -40 -5 -49 -2 -81 27 l-37 32 0 97 c0 53 7 200 15 326 8 127
21 365 29 530 9 165 18 334 21 376 l6 77 -77 63 -77 63 6 298 c3 164 9 303 13
309 20 33 28 -23 31 -213 2 -112 6 -213 9 -225 4 -19 11 -23 42 -23 21 0 43 5
50 12 9 9 12 81 12 264 0 257 1 261 37 263 9 1 13 -66 15 -259z"/>
<path d="M1315 2220 c-323 -65 -603 -281 -745 -574 -86 -178 -110 -282 -110
-472 0 -189 17 -281 80 -439 101 -255 322 -475 589 -586 152 -64 345 -89 523
-70 147 16 213 33 325 86 137 65 228 128 329 229 144 144 237 306 285 501 29
115 35 313 15 440 -75 457 -424 811 -875 890 -113 20 -304 18 -416 -5z m388
-31 c101 -16 257 -73 355 -131 288 -171 470 -457 512 -806 15 -121 8 -207 -30
-349 -63 -241 -194 -436 -393 -584 -192 -144 -465 -222 -693 -199 -455 46
-806 348 -921 790 -24 92 -27 124 -27 260 -1 146 1 161 32 263 55 183 131 317
251 440 94 97 184 165 287 216 83 41 210 85 285 100 65 13 259 13 342 0z"/>
<path d="M1395 2046 c-417 -71 -730 -417 -752 -831 -13 -266 81 -513 266 -695
105 -102 212 -169 353 -219 103 -36 103 -36 273 -36 167 0 172 1 268 34 252
87 427 238 537 464 71 146 92 234 92 382 0 136 -15 222 -62 342 -81 212 -273
412 -479 498 -153 64 -342 87 -496 61z m311 -55 c167 -34 283 -94 402 -206
164 -154 244 -317 272 -551 28 -232 -57 -475 -229 -656 -131 -139 -261 -213
-434 -249 -391 -80 -769 103 -938 456 -44 92 -64 162 -80 284 -22 161 5 309
82 466 62 125 128 208 226 286 203 161 450 221 699 170z"/>
<path d="M1425 1478 c-44 -16 -109 -63 -140 -100 -53 -62 -79 -135 -79 -218
-1 -92 13 -133 69 -209 35 -47 57 -66 112 -93 62 -30 76 -33 158 -33 81 0 95
3 143 30 60 32 129 104 158 162 15 30 19 60 19 143 0 100 -1 107 -33 162 -36
63 -82 107 -145 140 -33 17 -63 22 -137 25 -54 1 -108 -2 -125 -9z m218 -52
c76 -33 120 -76 153 -148 39 -87 39 -162 1 -240 -109 -222 -406 -221 -517 1
-70 140 -6 311 145 382 77 37 143 38 218 5z"/>
</g>
</svg>
