<?xml version="1.0" standalone="no"?>
<!DOCTYPE svg PUBLIC "-//W3C//DTD SVG 20010904//EN"
 "http://www.w3.org/TR/2001/REC-SVG-20010904/DTD/svg10.dtd">
<svg version="1.0" xmlns="http://www.w3.org/2000/svg"
 width="300.000000pt" height="309.000000pt" viewBox="0 0 300.000000 309.000000"
 preserveAspectRatio="xMidYMid meet">
<metadata>
Created by potrace 1.10, written by Peter Selinger 2001-2011
</metadata>
<g transform="translate(0.000000,309.000000) scale(0.100000,-0.100000)"
fill="#000000" stroke="none">
<path d="M1586 3003 c-3 -38 -7 -154 -7 -260 l-2 -192 -37 -6 c-46 -8 -101
-40 -107 -64 -3 -14 -21 -22 -66 -30 -215 -40 -478 -189 -643 -364 -143 -153
-241 -325 -291 -514 -51 -197 -42 -460 24 -662 104 -321 397 -626 719 -750
128 -49 198 -62 366 -68 188 -7 282 5 422 53 439 152 732 493 811 945 51 289
-26 615 -203 864 -105 148 -289 302 -467 389 -97 48 -261 106 -300 106 -15 0
-39 15 -63 39 -34 34 -90 61 -129 61 -8 0 -11 10 -8 28 2 15 7 122 10 237 3
116 8 220 11 233 5 17 2 22 -14 22 -17 0 -20 -9 -26 -67z m94 -498 c14 -7 33
-21 42 -31 16 -18 12 -19 -122 -19 -76 0 -141 3 -144 6 -10 9 29 40 71 55 42
15 112 10 153 -11z m-110 -160 l0 -95 -65 0 c-36 0 -65 2 -65 5 0 9 51 107 76
147 41 65 54 52 54 -57z m96 44 c22 -36 64 -123 64 -135 0 -2 -29 -4 -64 -4
l-65 0 -3 90 c-3 88 -2 90 19 90 16 0 31 -13 49 -41z m84 -5 c25 -18 65 -53
90 -78 l44 -46 -66 0 -66 0 -17 43 c-9 23 -27 59 -41 79 -13 21 -24 40 -24 42
0 10 36 -8 80 -40z m-270 6 c-11 -16 -31 -53 -44 -82 l-24 -53 -56 3 c-31 2
-56 7 -56 12 0 9 109 106 149 132 41 28 56 23 31 -12z m-147 -54 c-64 -61 -71
-65 -115 -66 -27 0 -48 3 -48 8 1 15 219 137 228 127 2 -2 -27 -33 -65 -69z
m494 53 c26 -11 77 -39 112 -62 59 -38 62 -42 40 -48 -53 -15 -71 -10 -107 32
-20 23 -54 55 -75 70 -47 34 -37 37 30 8z m-522 -9 c-3 -5 -23 -14 -43 -20
-21 -5 -57 -26 -79 -45 -40 -34 -94 -47 -107 -26 -6 9 155 87 194 94 14 2 29
5 33 6 5 0 5 -3 2 -9z m699 -31 c53 -23 96 -45 96 -49 0 -4 -13 -10 -29 -12
-22 -3 -46 7 -103 45 -40 27 -75 51 -77 53 -14 13 30 -1 113 -37z m183 -115
c64 -52 173 -155 173 -165 0 -6 -80 -32 -85 -27 -1 2 -37 45 -79 95 -42 51
-88 100 -102 110 -24 15 -25 17 -8 24 33 13 42 10 101 -37z m-1084 30 c3 -3
-8 -18 -26 -32 -30 -25 -82 -79 -154 -161 -30 -35 -31 -35 -73 -22 l-43 13 39
40 c22 22 72 69 113 104 57 50 81 64 106 64 17 0 34 -3 38 -6z m968 -31 c38
-32 179 -192 179 -203 0 -4 -28 -13 -62 -19 -35 -7 -73 -15 -85 -18 -18 -4
-27 7 -63 75 -23 45 -57 102 -76 129 l-34 48 32 6 c61 12 76 9 109 -18z m-841
8 c0 -5 -21 -45 -46 -88 -26 -43 -55 -97 -65 -121 -17 -39 -22 -43 -46 -38
-121 23 -143 28 -143 33 0 11 75 98 137 161 61 59 65 62 113 62 28 0 50 -4 50
-9z m716 -66 c43 -63 107 -176 102 -180 -6 -6 -200 -26 -204 -22 -3 3 -14 41
-24 86 -11 44 -26 97 -35 117 -21 51 -20 52 28 57 84 8 89 6 133 -58z m-546
48 c0 -5 -11 -42 -24 -83 -13 -41 -27 -96 -31 -122 -7 -43 -10 -48 -34 -48
-36 1 -173 19 -178 24 -6 6 22 59 80 154 l52 82 67 0 c38 0 68 -3 68 -7z m173
-131 l2 -132 -76 0 c-42 0 -91 3 -108 6 -37 8 -37 9 7 158 29 100 37 106 120
103 l53 -2 2 -133z m175 111 c13 -35 48 -146 60 -194 10 -36 9 -37 -20 -43
-17 -3 -66 -6 -109 -6 l-79 0 0 129 0 130 33 4 c89 11 104 8 115 -20z m-1025
-205 c-22 -29 -48 -68 -57 -86 -9 -17 -23 -32 -31 -32 -8 0 -15 3 -15 6 0 21
128 179 138 170 3 -3 -13 -29 -35 -58z m1738 25 c49 -53 99 -119 99 -132 0
-28 -31 -6 -60 42 -18 28 -48 69 -68 90 -23 23 -31 37 -21 37 8 0 31 -17 50
-37z m-34 -25 c59 -80 87 -129 77 -137 -11 -10 -103 -35 -108 -30 -5 7 -96
181 -96 185 0 5 62 32 76 33 7 1 29 -23 51 -51z m-1586 31 c19 -7 35 -13 37
-14 2 -2 -86 -175 -93 -183 -5 -6 -115 21 -120 28 -7 11 116 180 130 180 7 0
27 -5 46 -11z m161 -42 c36 -7 69 -14 71 -17 3 -3 -9 -48 -28 -100 l-33 -95
-38 3 c-55 3 -164 33 -164 44 0 6 21 48 46 94 30 55 51 84 62 83 9 0 47 -6 84
-12z m1280 -4 c20 -24 88 -147 88 -161 0 -9 -157 -52 -192 -52 -10 0 -25 33
-46 97 -17 53 -29 99 -27 101 5 5 119 29 146 31 9 0 23 -7 31 -16z m-1009 -32
c55 -1 54 3 30 -124 l-17 -89 -36 5 c-19 3 -69 9 -110 13 -41 3 -80 9 -87 13
-13 7 24 134 50 175 14 21 20 22 69 15 29 -4 74 -8 101 -8z m828 -82 c20 -52
33 -97 30 -101 -8 -9 -235 -27 -242 -19 -6 6 -30 137 -33 176 -1 18 7 21 79
27 44 4 87 9 95 12 29 7 35 -1 71 -95z m-561 65 l35 -6 -2 -96 c-1 -91 -3 -97
-22 -96 -12 0 -70 1 -130 2 l-109 2 9 43 c4 23 13 68 19 100 l11 57 77 0 c42
0 93 -3 112 -6z m304 -92 c11 -51 17 -94 15 -96 -2 -2 -61 -6 -131 -8 l-128
-4 0 97 c0 114 -9 107 135 105 l90 -1 19 -93z m-1224 13 c0 -2 -22 -60 -50
-127 -47 -118 -67 -144 -64 -87 2 34 89 219 103 219 6 0 11 -2 11 -5z m2012
-95 c55 -109 63 -145 34 -145 -14 0 -24 13 -36 50 -10 28 -31 81 -49 119 -36
81 -36 78 -13 74 10 -2 35 -40 64 -98z m-1912 59 c25 -7 46 -13 47 -14 2 -1
-8 -35 -21 -76 -14 -41 -32 -100 -41 -132 -10 -37 -21 -57 -28 -54 -7 2 -36
12 -64 21 -29 10 -55 22 -59 27 -6 10 17 77 63 187 19 46 30 61 42 58 9 -3 36
-10 61 -17z m1865 -100 c34 -84 46 -122 38 -127 -19 -12 -123 -46 -126 -41 -2
4 -71 200 -83 240 -4 11 8 19 43 31 26 9 55 17 64 17 11 1 30 -35 64 -120z
m-1670 45 c44 -9 81 -17 83 -19 1 -1 -7 -42 -17 -91 -11 -49 -23 -106 -26
-126 -5 -33 -9 -38 -33 -38 -34 1 -190 35 -199 44 -8 8 19 123 47 200 19 50
25 57 44 52 11 -3 57 -13 101 -22z m1518 -98 c21 -65 35 -122 30 -126 -10 -9
-233 -64 -237 -59 -5 6 -48 260 -44 263 8 6 185 44 197 42 10 -1 29 -44 54
-120z m-1248 63 c50 -6 91 -12 93 -14 4 -3 -19 -259 -23 -263 -4 -5 -264 21
-274 27 -10 7 8 118 34 208 18 61 16 61 170 42z m974 -26 c13 -50 43 -224 39
-228 -3 -3 -234 -25 -266 -25 -17 0 -20 10 -26 93 -4 50 -9 111 -12 135 l-6
42 48 1 c27 0 72 4 99 9 105 16 113 14 124 -27z m-584 -128 l0 -135 -116 0
c-64 0 -129 3 -145 6 l-29 5 7 92 c3 51 7 109 7 130 l1 37 138 0 137 0 0 -135z
m299 78 c3 -32 8 -93 11 -135 l7 -78 -146 0 -146 0 0 135 0 135 134 0 134 0 6
-57z m-1359 -93 c-3 -10 -12 -66 -20 -125 -8 -59 -16 -109 -18 -111 -11 -11
-37 11 -37 31 0 34 28 189 40 220 9 23 13 25 25 15 9 -7 13 -21 10 -30z m2193
-2 c24 -97 35 -208 22 -223 -19 -23 -30 -18 -30 16 0 17 -9 76 -21 132 -16 81
-18 102 -7 108 22 14 25 11 36 -33z m-63 -10 c10 -49 24 -145 27 -192 l3 -50
-60 -23 c-33 -13 -67 -25 -76 -28 -14 -5 -17 9 -23 100 -4 58 -9 118 -12 133
-5 26 -2 29 58 54 80 32 77 32 83 6z m-2029 -10 l66 -23 -6 -35 c-3 -19 -8
-79 -12 -132 -5 -65 -11 -98 -19 -98 -6 0 -38 11 -71 24 -50 21 -60 28 -63 53
-5 41 20 233 31 233 5 0 39 -10 74 -22z m226 -58 c50 -11 92 -21 95 -23 2 -3
1 -64 -3 -137 l-7 -132 -36 7 c-20 4 -75 16 -123 27 -79 18 -88 22 -88 43 0
40 21 228 26 237 3 5 15 6 26 2 11 -3 60 -14 110 -24z m1641 -7 c3 -21 9 -81
13 -134 l7 -97 -110 -26 c-60 -14 -117 -26 -125 -26 -13 0 -17 18 -23 98 -3
53 -8 113 -11 132 l-5 36 108 26 c145 34 139 35 146 -9z m-1350 -34 l128 -12
-2 -135 -3 -135 -139 7 c-77 4 -145 10 -153 13 -9 3 -12 23 -8 76 12 178 15
197 32 197 9 0 75 -5 145 -11z m1080 -71 c4 -46 7 -106 7 -134 0 -62 6 -60
-167 -69 l-121 -7 -7 73 c-3 41 -5 101 -3 134 l3 60 110 11 c61 6 124 12 141
12 l31 2 6 -82z m-742 46 l104 -7 0 -128 0 -129 -147 0 -148 0 0 135 0 135 43
0 c24 0 91 -3 148 -6z m427 -123 c2 -93 -1 -126 -10 -133 -7 -4 -75 -8 -150
-8 l-138 0 0 133 0 132 148 0 147 0 3 -124z m-1428 19 c13 -9 13 -10 0 -10
-10 0 -11 -3 -3 -8 7 -4 14 -49 18 -107 l7 -100 -23 22 c-20 20 -23 33 -26
118 -1 52 1 95 5 95 4 0 14 -5 22 -10z m2270 -77 c0 -92 -6 -119 -28 -128 -13
-5 -14 6 -9 90 4 53 9 100 12 106 16 25 25 1 25 -68z m-61 -30 c-2 -129 -4
-132 -89 -174 -48 -25 -76 -34 -78 -26 -1 7 1 59 5 117 l8 104 70 27 c39 15
73 28 78 28 4 1 6 -34 6 -76z m-2094 42 l70 -24 6 -108 c4 -59 5 -110 3 -112
-2 -2 -34 11 -71 30 -64 32 -68 37 -74 74 -10 62 -16 165 -10 165 3 -1 38 -12
76 -25z m255 -65 l85 -17 13 -122 c8 -68 12 -125 9 -128 -6 -5 -141 30 -204
54 -23 8 -44 21 -47 28 -2 7 -8 60 -12 118 l-7 106 39 -11 c22 -6 77 -18 124
-28z m1660 8 c0 -80 -20 -203 -35 -214 -16 -12 -235 -67 -241 -61 -3 2 0 40 6
83 6 43 13 98 16 121 4 37 9 44 32 48 15 3 68 16 117 29 50 13 93 24 98 25 4
0 7 -14 7 -31z m-1248 -57 c4 -3 8 -64 9 -136 l2 -130 -39 3 c-74 6 -239 33
-246 40 -4 4 -11 60 -14 125 l-7 117 144 -6 c79 -4 147 -9 151 -13z m968 4 c0
-41 -23 -221 -29 -227 -9 -10 -98 -26 -199 -36 l-83 -8 7 130 c4 72 9 133 11
136 3 3 48 8 101 11 179 11 192 10 192 -6z m-645 -140 l0 -135 -141 0 -141 0
-7 53 c-3 28 -6 89 -6 135 l0 82 148 0 147 0 0 -135z m320 13 c-4 -68 -8 -129
-10 -135 -3 -10 -41 -13 -145 -13 l-140 0 0 135 0 135 151 0 150 0 -6 -122z
m-1391 27 c11 -49 42 -171 51 -202 13 -43 -12 -23 -33 25 -19 46 -62 192 -62
213 0 6 8 9 18 7 11 -2 20 -18 26 -43z m2211 -14 c-24 -99 -85 -248 -85 -204
0 13 61 245 67 256 2 4 10 7 18 7 11 0 11 -9 0 -59z m-2048 -54 c7 -4 17 -34
23 -64 7 -31 23 -85 36 -121 14 -35 23 -66 20 -69 -6 -6 -66 20 -112 50 -36
22 -43 34 -68 111 -15 48 -30 102 -33 121 l-6 36 64 -27 c35 -15 69 -32 76
-37z m1989 46 c-3 -10 -12 -48 -20 -84 -30 -131 -39 -145 -127 -190 -44 -21
-79 -35 -79 -31 0 5 11 40 23 78 13 38 30 93 37 122 12 52 13 53 84 86 84 40
89 41 82 19z m-1909 -74 c36 -14 173 -49 194 -49 12 0 20 -21 33 -85 10 -47
24 -104 32 -127 8 -23 12 -43 9 -46 -5 -6 -109 20 -185 46 l-55 19 -32 109
c-30 104 -38 144 -29 144 3 0 17 -5 33 -11z m1693 -120 c-18 -58 -41 -111 -54
-124 -13 -13 -56 -31 -106 -44 -47 -12 -94 -25 -104 -28 -16 -5 -18 -2 -12 23
4 16 17 76 29 134 l22 105 95 21 c52 11 109 25 125 31 42 14 42 3 5 -118z
m-1275 31 l103 -13 7 -51 c3 -28 11 -82 16 -119 6 -38 8 -71 5 -75 -9 -8 -237
25 -248 36 -11 11 -68 234 -62 243 2 4 20 3 40 -1 19 -5 82 -14 139 -20z
m1020 -2 c-3 -13 -10 -45 -15 -73 -18 -83 -41 -145 -58 -154 -20 -10 -221 -36
-228 -29 -2 3 1 59 8 126 l12 121 40 5 c23 3 75 9 116 14 128 15 131 15 125
-10z m-613 -144 l-1 -129 -117 3 c-65 1 -119 4 -121 6 -4 4 -43 232 -43 250 0
4 64 6 141 3 l141 -5 0 -128z m308 114 c0 -26 -29 -230 -32 -233 -2 -2 -58 -5
-125 -7 l-123 -4 0 127 0 128 53 4 c28 2 91 4 140 5 84 2 87 1 87 -20z m-1288
-68 c20 -49 8 -53 -15 -5 -19 40 -20 45 -9 45 4 0 15 -18 24 -40z m2038 26 c0
-3 -16 -31 -35 -63 -19 -32 -35 -52 -35 -45 0 20 49 112 60 112 6 0 10 -2 10
-4z m-1936 -70 c66 -29 69 -32 103 -100 20 -39 54 -97 75 -129 22 -32 38 -60
36 -62 -7 -7 -102 42 -125 64 -54 52 -195 271 -167 260 6 -2 41 -17 78 -33z
m1866 18 c0 -15 -99 -171 -134 -211 -36 -42 -127 -98 -147 -91 -5 2 7 26 27
53 20 28 52 83 71 123 33 71 37 75 96 102 62 29 87 35 87 24z m-225 -151 c-44
-84 -97 -157 -129 -178 -25 -17 -166 -59 -173 -51 -2 2 9 28 25 57 17 30 42
86 58 126 l27 72 56 11 c31 6 81 19 111 28 30 9 56 14 58 10 2 -4 -13 -38 -33
-75z m-1401 46 c100 -22 106 -25 106 -43 0 -7 23 -59 50 -116 28 -56 48 -105
46 -108 -10 -9 -147 31 -171 50 -28 22 -83 100 -135 192 -33 59 -33 59 -9 52
13 -4 64 -16 113 -27z m291 -53 l89 -11 28 -119 c16 -66 26 -121 24 -123 -10
-11 -172 20 -188 35 -20 21 -118 212 -118 231 0 10 9 11 38 6 20 -4 77 -13
127 -19z m885 11 c0 -7 -26 -64 -57 -127 l-58 -115 -50 -6 c-158 -21 -147 -21
-139 4 4 12 20 67 34 122 l27 100 49 7 c27 4 76 12 109 16 86 13 85 13 85 -1z
m-270 -23 c0 -11 -50 -203 -60 -228 -9 -25 -13 -26 -95 -26 l-85 0 0 125 0
124 108 4 c59 1 113 4 120 5 6 1 12 -1 12 -4z m-265 -129 l0 -125 -76 0 c-45
0 -81 5 -91 13 -9 6 -26 55 -38 107 -12 52 -24 103 -27 113 -4 15 6 17 114 17
l118 0 0 -125z m730 -40 c-51 -42 -185 -128 -191 -123 -10 10 127 123 169 139
52 21 60 15 22 -16z m-1379 2 c27 -15 150 -127 140 -127 -14 0 -141 87 -165
114 -26 28 -13 35 25 13z m165 -56 c69 -18 79 -24 149 -92 66 -64 71 -72 45
-65 -47 11 -185 91 -235 136 -25 21 -42 40 -39 40 3 0 39 -9 80 -19z m1028
-30 c-45 -40 -212 -135 -228 -129 -5 2 19 34 54 71 64 70 110 94 189 96 l29 1
-44 -39z m-811 -7 c33 -3 64 -9 69 -13 9 -6 83 -128 83 -137 0 -8 -53 8 -91
27 -65 33 -188 156 -135 136 8 -3 41 -9 74 -13z m597 -53 c-53 -51 -83 -72
-123 -86 -29 -9 -56 -15 -58 -12 -6 5 35 90 59 122 11 14 36 23 84 31 115 19
115 20 38 -55z m-346 29 c13 0 17 -13 19 -65 l2 -65 -39 0 c-23 0 -46 7 -56
16 -16 16 -65 107 -65 120 0 4 28 4 61 0 34 -3 69 -6 78 -6z m191 -3 c0 -10
-50 -99 -66 -116 -2 -2 -21 -7 -44 -11 l-40 -7 0 68 0 68 38 4 c83 8 112 7
112 -6z"/>
<path d="M1146 2754 c-4 -16 -17 -29 -36 -36 -37 -12 -39 -34 -5 -42 18 -5 25
-13 25 -30 0 -23 23 -41 40 -31 5 3 11 18 15 34 4 21 11 28 24 24 9 -2 23 3
30 11 12 14 9 18 -18 27 -25 9 -31 16 -31 40 0 38 -35 41 -44 3z m29 -59 c0
-16 -6 -30 -13 -33 -17 -5 -33 39 -19 56 16 20 32 8 32 -23z"/>
<path d="M2417 2644 c-4 -4 -7 -15 -7 -25 0 -19 -49 -83 -58 -75 -8 9 -32 -14
-32 -30 0 -8 7 -14 16 -14 25 0 74 -56 74 -84 0 -45 30 -30 54 27 11 27 26 42
50 52 24 10 34 20 30 30 -4 8 -12 15 -19 15 -22 0 -59 36 -70 71 -11 33 -25
45 -38 33z m43 -94 l32 -30 -26 -21 c-14 -11 -26 -27 -26 -35 0 -8 -4 -14 -10
-14 -5 0 -10 5 -10 10 0 6 -11 22 -24 35 l-24 24 26 30 c15 17 28 30 28 31 1
0 16 -14 34 -30z"/>
<path d="M662 2508 c-7 -7 -12 -27 -12 -45 0 -26 5 -34 25 -39 35 -9 54 1 66
33 9 24 7 30 -11 45 -26 21 -51 23 -68 6z m48 -32 c0 -31 -14 -40 -30 -21 -15
18 -6 45 15 45 9 0 15 -9 15 -24z"/>
<path d="M2800 2265 c-12 -19 -27 -35 -35 -35 -7 0 -18 -6 -24 -14 -9 -11 -6
-16 19 -24 19 -7 30 -18 30 -30 0 -11 6 -25 14 -31 12 -10 19 -6 37 18 13 17
28 31 33 31 6 0 17 4 24 9 10 6 4 17 -22 43 -20 20 -36 43 -36 52 0 26 -17 18
-40 -19z m39 -39 c14 -17 4 -46 -15 -46 -18 0 -28 24 -20 45 7 19 20 19 35 1z"/>
<path d="M206 2134 c-3 -9 -6 -27 -6 -40 0 -21 -10 -30 -60 -52 -32 -15 -59
-32 -60 -39 0 -6 19 -15 43 -20 39 -7 44 -12 70 -65 15 -32 31 -58 36 -58 5 0
16 20 25 44 21 54 40 72 89 80 46 8 47 20 5 37 -58 22 -84 47 -97 88 -12 42
-34 54 -45 25z m34 -69 c0 -8 14 -24 30 -37 35 -26 37 -34 11 -41 -11 -3 -29
-19 -40 -37 -18 -31 -20 -31 -30 -12 -6 11 -11 27 -11 35 0 8 -11 18 -25 21
-33 8 -32 21 5 36 16 7 32 21 35 31 7 22 25 25 25 4z"/>
<path d="M2822 589 c-19 -44 -27 -52 -72 -71 -56 -23 -60 -39 -11 -49 42 -9
61 -28 81 -81 19 -52 36 -58 44 -16 8 42 43 100 59 96 21 -4 58 13 54 25 -2 7
-16 14 -30 17 -39 7 -65 34 -77 79 -6 22 -14 43 -19 45 -5 3 -18 -17 -29 -45z
m66 -75 c20 -20 21 -23 6 -35 -10 -8 -24 -30 -32 -49 l-14 -34 -15 29 c-9 17
-27 40 -42 52 l-26 21 26 12 c15 7 33 23 40 37 13 23 14 24 24 7 5 -10 20 -28
33 -40z"/>
<path d="M130 568 c0 -12 -12 -32 -27 -43 -28 -23 -25 -45 7 -45 11 0 27 -11
36 -25 21 -32 30 -32 38 0 3 13 16 34 29 46 21 20 21 21 3 33 -10 6 -31 21
-46 34 -35 28 -40 28 -40 0z m50 -52 c0 -33 -20 -44 -36 -21 -10 14 -11 22 -3
32 18 21 39 15 39 -11z"/>
<path d="M466 388 c-3 -7 -10 -30 -16 -51 -10 -32 -20 -42 -57 -58 -48 -20
-54 -44 -11 -44 36 0 55 -20 74 -78 9 -29 18 -54 20 -56 7 -8 33 34 34 52 0
34 39 77 69 77 36 0 62 27 35 35 -59 18 -87 41 -103 84 -16 45 -38 63 -45 39z
m24 -58 c0 -5 14 -25 30 -44 l30 -34 -30 -32 c-16 -18 -30 -36 -30 -41 0 -19
-20 -8 -26 15 -3 14 -14 32 -25 42 -24 22 -24 31 0 39 11 3 22 19 26 35 6 28
25 43 25 20z"/>
</g>
</svg>
